<svg width="64" height="64" viewBox="0 0 64 64" fill="none" xmlns="http://www.w3.org/2000/svg">
<path d="M21.5244 61.9404C29.581 61.9404 36.1065 55.4412 36.1065 47.3797C36.1065 43.2167 34.4361 39.5865 31.2315 36.6455C30.6786 36.1367 30.5545 35.8297 30.5545 35.0455L30.5764 11.4145C30.5764 5.57683 26.8874 1.59808 21.5244 1.59808C16.0934 1.59808 12.3921 5.57683 12.3921 11.4145L12.4141 35.0455C12.4141 35.8297 12.3118 36.1415 11.7369 36.6455C8.53497 39.5625 6.85712 43.2167 6.85712 47.3797C6.85712 55.4412 13.4094 61.9404 21.5244 61.9404ZM21.5244 57.3621C15.96 57.3621 11.4889 52.8423 11.4889 47.3219C11.4889 43.9303 13.0789 40.9614 15.9037 39.0739C16.7292 38.5212 17.0458 38.0316 17.0458 36.9381V11.58C17.0458 8.38021 18.8699 6.22501 21.5244 6.22501C24.1157 6.22501 25.9398 8.38021 25.9398 11.58V36.9381C25.9398 38.0316 26.2612 38.5212 27.0819 39.0739C29.9067 40.9614 31.5015 43.9303 31.5015 47.3219C31.5015 52.8423 27.0085 57.3621 21.5244 57.3621Z" fill="#E31E24"/>
<path d="M21.4928 53.746C25.0483 53.746 27.9122 50.882 27.9122 47.2998C27.9122 44.8109 26.507 42.7677 24.4638 41.6571C23.6163 41.2017 23.3217 40.8804 23.3217 39.5823V34.0902C23.3217 32.8045 22.501 31.9789 21.4928 31.9789C20.4674 31.9789 19.6638 32.8045 19.6638 34.0902V39.5823C19.6638 40.8804 19.374 41.2017 18.5217 41.6571C16.4833 42.7677 15.0781 44.8109 15.0781 47.2998C15.0781 50.882 17.9421 53.746 21.4928 53.746Z" fill="#E31E24"/>
<path d="M56.8243 28.1877L53.3694 26.2142L56.432 24.4501C57.1767 24.0242 57.4446 23.1627 57.0455 22.4545C56.6149 21.6879 55.7411 21.5518 54.9429 22.0141L50.4663 24.5641L42.8556 20.2639L50.5468 15.9321L55.0183 18.5089C55.7898 18.9568 56.6512 18.8084 57.1308 18.0686C57.5127 17.348 57.2304 16.477 56.5077 16.0682L53.4547 14.3089L56.851 12.3889C57.7344 11.8779 58.0435 10.98 57.5546 10.1454C57.1189 9.34233 56.1406 9.15751 55.3644 9.615L51.9242 11.6298V8.13589C51.9242 7.26215 51.3182 6.6075 50.52 6.60267C49.6147 6.59785 49.0622 7.26215 49.0622 8.22108L49.0307 13.3307L41.4343 17.8109L41.5244 8.91856L45.9644 6.34178C46.7626 5.85749 47.062 5.04965 46.641 4.28786C46.2247 3.57481 45.3584 3.39001 44.6138 3.82071L41.5607 5.58965L41.5923 1.74482C41.5971 0.771426 40.9719 0 40.0254 0C39.0615 0 38.4583 0.771426 38.4679 1.74482L38.4997 5.58965L35.4419 3.82071C34.702 3.39481 33.8186 3.57481 33.4147 4.28786C32.9888 5.04482 33.2883 5.85749 34.0912 6.34178L38.5312 8.91856L38.6213 17.8109L33.8743 14.9893V18.367L37.1781 20.2639L33.8743 22.1341L33.8695 25.5289L38.6213 22.717L38.5312 31.5509L34.6163 33.8021C34.9811 34.5975 35.6485 35.5248 36.299 36.1447L38.4997 34.8846L38.4679 38.7783C38.4583 39.7833 39.0615 40.523 40.0254 40.523C40.9719 40.523 41.5971 39.7563 41.5923 38.7783L41.5607 34.9065L44.5966 36.6487C45.3413 37.0747 46.1882 36.8898 46.619 36.1817C47.0764 35.4247 46.7454 34.6119 45.9422 34.1278L41.5244 31.5509L41.4343 22.717L48.9772 27.1703L48.982 32.3019C48.982 33.1806 49.5562 33.8667 50.4396 33.8935C51.233 33.9033 51.8437 33.1998 51.8437 32.3824L51.8656 28.8713L55.267 30.8814C56.1381 31.3849 57.0798 31.2247 57.5546 30.4094C58.0435 29.5746 57.6663 28.6357 56.8243 28.1877Z" fill="#E31E24"/>
</svg>
