<svg width="64" height="64" viewBox="0 0 64 64" fill="none" xmlns="http://www.w3.org/2000/svg">
<path d="M52.8988 34.7922C52.8988 33.1614 51.7127 31.9557 50.0985 31.9557C49.2677 31.9557 48.5456 32.2711 48.0206 32.8009L41.9472 38.8009L33.0088 48.7685L34.7692 49.6464L35.0901 40.917V7.6191C35.0901 5.88179 33.8916 4.6593 32.1661 4.6593C30.4405 4.6593 29.2422 5.88179 29.2422 7.6191V40.917L29.5631 49.6464L31.3454 48.7685L22.385 38.8009L16.3068 32.8009C15.7989 32.2711 15.0596 31.9557 14.2287 31.9557C12.6147 31.9557 11.4286 33.1614 11.4286 34.7922C11.4286 35.5749 11.7323 36.277 12.3425 36.9093L29.9857 54.5964C30.567 55.2046 31.3566 55.5301 32.1661 55.5301C32.9755 55.5301 33.7603 55.2046 34.3463 54.5964L52.0018 36.9093C52.6169 36.277 52.8988 35.5749 52.8988 34.7922ZM52.8988 58.4012C52.8988 56.7527 51.7202 55.5301 50.0937 55.5301H14.2775C12.6243 55.5301 11.4286 56.7527 11.4286 58.4012C11.4286 60.0494 12.6243 61.294 14.2775 61.294H50.0937C51.7202 61.294 52.8988 60.0494 52.8988 58.4012Z" fill="#E31E24"/>
</svg>
