<svg width="64" height="64" viewBox="0 0 64 64" fill="none" xmlns="http://www.w3.org/2000/svg">
<path d="M45.8952 37.2834C48.9793 37.2834 51.2357 35.6672 52.9865 34.3986C55.0822 32.8895 56.6775 31.8074 59.3556 31.8074L59.5136 31.8074C60.7489 31.8074 61.7143 30.82 61.7143 29.6116C61.7143 28.3981 60.7489 27.4328 59.5136 27.4328L59.3556 27.4328C50.8179 27.4328 50.114 32.9089 45.8952 32.9089C45.12 32.9089 44.5302 32.6527 43.972 32.37L41.1879 35.9227C42.5218 36.6701 44.0357 37.2834 45.8952 37.2834ZM6.66172 31.8074L6.81966 31.8074C9.51978 31.8074 11.093 32.8895 13.184 34.3986C14.9394 35.6672 17.1911 37.2834 20.28 37.2834C22.1662 37.2834 23.6994 36.6604 25.0505 35.8815L22.2761 32.3432C21.6814 32.6746 21.0773 32.9089 20.28 32.9089C16.0565 32.9089 15.3792 27.4328 6.81966 27.4328L6.66172 27.4328C5.44824 27.4328 4.46104 28.3981 4.46104 29.6116C4.46104 30.82 5.44824 31.8074 6.66172 31.8074Z" fill="#E31E24"/>
<path d="M61.7143 46.1309C61.7143 44.9175 60.7489 43.9301 59.5136 43.9301L59.3556 43.9301C50.8179 43.9301 50.114 49.4062 45.8952 49.4062C41.7375 49.4062 40.634 43.9301 33.0853 43.9301C25.5584 43.9301 24.4329 49.4062 20.28 49.4062C16.0565 49.4062 15.3792 43.9301 6.81966 43.9301L6.66172 43.9301C5.44824 43.9301 4.46104 44.9175 4.46104 46.1309C4.46104 47.3394 5.44824 48.3096 6.66172 48.3096L6.81966 48.3096C9.51978 48.3096 11.093 49.4137 13.184 50.9008C14.9394 52.1694 17.1911 53.7856 20.28 53.7856C23.4569 53.7856 25.7303 52.1035 27.486 50.7862C29.3486 49.3885 30.7833 48.3096 33.0853 48.3096C35.414 48.3096 36.8217 49.3885 38.6894 50.7862C40.44 52.1035 42.7184 53.7856 45.8952 53.7856C48.9793 53.7856 51.2357 52.1694 52.9865 50.9008C55.0822 49.4137 56.6775 48.3096 59.3556 48.3096L59.5136 48.3096C60.7489 48.3096 61.7143 47.3394 61.7143 46.1309Z" fill="#E31E24"/>
<path d="M40.4652 20.8676L25.7925 20.8676C23.9749 20.8676 23.1868 19.0864 24.291 17.6683L31.4014 8.45354C32.443 7.13461 33.793 7.12229 34.8467 8.45354L41.962 17.6464C43.0833 19.0816 42.3097 20.8676 40.4652 20.8676ZM35.5751 18.187L35.5751 36.3412C35.5751 37.6494 34.4663 38.7776 33.1072 38.7776C31.7482 38.7776 30.622 37.6494 30.622 36.3412L30.622 18.187L35.5751 18.187Z" fill="#E31E24"/>
</svg>
