<svg width="64" height="64" viewBox="0 0 64 64" fill="none" xmlns="http://www.w3.org/2000/svg">
<path d="M4.98035 50.9129C3.51035 56.8219 6.05552 60.2821 11.7818 60.2821H51.259C56.9806 60.2821 59.5257 56.8219 58.0606 50.9129L52.1698 27.0416C51.1161 22.8148 48.0935 20.4271 43.7554 20.4271H19.2855C14.9473 20.4271 11.9028 22.8148 10.8711 27.0416L4.98035 50.9129ZM10.0942 51.2629L15.8146 28.6958C16.3316 26.6526 17.5187 25.675 19.5105 25.675H43.5303C45.5221 25.675 46.7045 26.6526 47.2263 28.6958L52.9465 51.2629C53.5927 53.7326 52.6272 55.0343 50.4796 55.0343H12.5344C10.4135 55.0343 9.44335 53.7326 10.0942 51.2629ZM28.8855 24.3662H34.1333V15.8018H28.8855V24.3662ZM31.518 18.4021C35.9061 18.4021 39.5982 14.7539 39.5982 10.3707C39.5982 5.9607 35.9013 2.28571 31.518 2.28571C27.1128 2.28571 23.4427 5.9607 23.4427 10.3707C23.4427 14.7759 27.1348 18.4021 31.518 18.4021ZM31.518 14.0087C29.5465 14.0087 27.8581 12.3421 27.8581 10.3707C27.8581 8.39444 29.5246 6.6839 31.518 6.6839C33.499 6.6839 35.1829 8.39444 35.1829 10.3707C35.1829 12.3518 33.5212 14.0087 31.518 14.0087Z" fill="#E31E24"/>
</svg>
