<svg width="70" height="64" viewBox="0 0 70 64" fill="none" xmlns="http://www.w3.org/2000/svg">
<path d="M54.1925 54.3799C62.5227 54.3799 69.0805 48.2624 69.0805 40.6361C69.0805 34.9339 65.8297 29.9047 60.5294 27.6841C60.5637 15.5834 51.8304 6.85712 40.6293 6.85712C33.4859 6.85712 28.1573 10.553 24.7984 15.3948C18.0259 13.5723 10.8811 18.6294 10.6314 26.1776C4.51036 27.2528 0.714287 32.7696 0.714287 39.4452C0.714287 47.5853 7.82483 54.3799 17.1832 54.3799H54.1925ZM54.1973 49.1319H17.1928C10.7803 49.1319 6.01996 44.6587 6.01996 39.4452C6.01996 34.1122 9.31888 30.104 14.8046 30.104C15.1941 30.104 15.3473 29.9019 15.3376 29.5296C15.1785 21.5158 20.9273 18.8469 26.6546 20.656C26.9856 20.7583 27.1925 20.678 27.3627 20.3737C30.0043 15.7205 33.9136 12.1049 40.5954 12.1049C49.0679 12.1049 55.0469 18.804 55.4734 26.61C55.5586 28.0157 55.459 29.573 55.3326 30.8656C55.3008 31.2379 55.4446 31.4304 55.7947 31.5058C60.6601 32.4567 63.7749 35.8939 63.7749 40.6361C63.7749 45.3529 59.5989 49.1319 54.1973 49.1319Z" fill="#E31E24"/>
</svg>
