<svg width="35.000000" height="35.000000" viewBox="0 0 35 35" fill="none" xmlns="http://www.w3.org/2000/svg" xmlns:xlink="http://www.w3.org/1999/xlink">
	<desc>
			Created with Pixso.
	</desc>
	<defs>
		<clipPath id="clip339_268">
			<rect id="factory-svgrepo-com 1" width="35.000000" height="35.000000" fill="white" fill-opacity="0"/>
		</clipPath>
	</defs>
	<rect id="factory-svgrepo-com 1" width="35.000000" height="35.000000" fill="#FFFFFF" fill-opacity="0"/>
	<g clip-path="url(#clip339_268)">
		<path id="factory_1_" d="M2.73 3.67C1.38 3.67 0.7 2.8 0.7 1.09C0.7 0.87 0.87 0.7 1.09 0.7C1.31 0.7 1.48 0.87 1.48 1.09C1.48 2.67 2.08 2.88 2.73 2.88C3.91 2.88 4.76 3.97 4.76 5.46C4.76 5.68 4.59 5.86 4.37 5.86C4.15 5.86 3.98 5.68 3.98 5.46C3.98 4.57 3.55 3.67 2.73 3.67ZM3.82 1.48C5.25 1.48 6.16 2.4 6.16 3.82C6.16 4.04 6.34 4.22 6.56 4.22C6.78 4.22 6.95 4.04 6.95 3.82C6.95 1.95 5.69 0.7 3.82 0.7C3.61 0.7 3.43 0.87 3.43 1.09C3.43 1.31 3.61 1.48 3.82 1.48ZM10.93 21.48C10.72 21.48 10.54 21.65 10.54 21.87L10.54 24.06C10.54 24.28 10.72 24.45 10.93 24.45C11.15 24.45 11.33 24.28 11.33 24.06L11.33 21.87C11.33 21.65 11.15 21.48 10.93 21.48ZM34.3 25.36L34.3 33.9C34.3 34.12 34.12 34.3 33.9 34.3L2.18 34.3C1.97 34.3 1.79 34.12 1.79 33.9L1.79 6.56C1.79 6.34 1.97 6.16 2.18 6.16L6.56 6.16C6.78 6.16 6.95 6.34 6.95 6.56L6.95 17.88L13.46 13.88C13.58 13.8 13.74 13.8 13.86 13.87C13.98 13.94 14.06 14.07 14.06 14.21L14.06 17.91L21.13 13.87C21.25 13.8 21.4 13.8 21.52 13.87C21.64 13.94 21.72 14.07 21.72 14.22L21.72 17.89L28.23 13.88C28.35 13.8 28.5 13.8 28.62 13.87C28.75 13.94 28.83 14.07 28.83 14.21L28.83 21.48L30.44 21.48C30.96 21.48 32.28 21.58 33.26 22.57C33.95 23.26 34.3 24.2 34.3 25.36ZM28.83 23.66L30.33 23.66C31.31 23.66 32.11 24.45 32.11 25.42L32.11 33.51L33.51 33.51L33.51 25.36C33.51 24.42 33.24 23.67 32.71 23.13C32.17 22.59 31.32 22.27 30.44 22.27L28.83 22.27L28.83 23.66ZM28.83 24.45L28.83 33.51L31.32 33.51L31.32 25.42C31.32 24.88 30.88 24.45 30.33 24.45L28.83 24.45L28.83 24.45ZM2.58 6.95L2.58 13.82L6.16 13.82L6.16 6.95L2.58 6.95ZM6.16 33.51L6.16 14.61L2.58 14.61L2.58 33.51L6.16 33.51ZM6.95 33.51L14.91 33.51L14.91 27.34C14.91 27.12 15.09 26.95 15.31 26.95L19.68 26.95C19.9 26.95 20.08 27.12 20.08 27.34L20.08 33.51L28.04 33.51L28.04 14.92L21.53 18.92C21.41 19 21.26 19 21.13 18.93C21.01 18.86 20.93 18.73 20.93 18.59L20.93 14.89L13.86 18.93C13.74 19 13.59 19 13.47 18.93C13.35 18.86 13.27 18.73 13.27 18.59L13.27 14.92L6.95 18.81L6.95 33.51ZM19.29 27.73L15.7 27.73L15.7 33.51L19.29 33.51L19.29 27.73ZM15.31 24.45C15.53 24.45 15.7 24.28 15.7 24.06L15.7 21.87C15.7 21.65 15.53 21.48 15.31 21.48C15.09 21.48 14.91 21.65 14.91 21.87L14.91 24.06C14.91 24.28 15.09 24.45 15.31 24.45ZM19.68 24.45C19.9 24.45 20.08 24.28 20.08 24.06L20.08 21.87C20.08 21.65 19.9 21.48 19.68 21.48C19.47 21.48 19.29 21.65 19.29 21.87L19.29 24.06C19.29 24.28 19.47 24.45 19.68 24.45ZM24.06 24.45C24.28 24.45 24.45 24.28 24.45 24.06L24.45 21.87C24.45 21.65 24.28 21.48 24.06 21.48C23.84 21.48 23.66 21.65 23.66 21.87L23.66 24.06C23.66 24.28 23.84 24.45 24.06 24.45Z" fill="#000000" fill-opacity="1.000000" fill-rule="nonzero"/>
	</g>
</svg>
