<svg width="35.000000" height="35.000000" viewBox="0 0 35 35" fill="none" xmlns="http://www.w3.org/2000/svg" xmlns:xlink="http://www.w3.org/1999/xlink">
	<desc>
			Created with Pixso.
	</desc>
	<defs>
		<clipPath id="clip339_271">
			<rect id="house-svgrepo-com 1" width="35.000000" height="35.000000" fill="white" fill-opacity="0"/>
		</clipPath>
	</defs>
	<rect id="house-svgrepo-com 1" width="35.000000" height="35.000000" fill="#FFFFFF" fill-opacity="0"/>
	<g clip-path="url(#clip339_271)">
		<path id="Vector" d="M35 7.6L35 3.56L26.07 0L24.73 0L15.8 3.56L15.8 7.6L18.06 6.7L18.06 8.46L0 8.46L0 19.75L1.12 19.75L1.12 30.48L0 30.48L0 35L20.88 35L21.45 35L29.35 35L29.91 35L35 35L35 30.48L32.74 30.48L32.74 6.7L35 7.6ZM1.12 9.59L18.06 9.59L18.06 18.62L1.12 18.62L1.12 9.59ZM18.06 19.75L18.06 30.48L2.25 30.48L2.25 19.75L18.06 19.75ZM20.32 33.87L19.19 33.87L19.19 32.74L18.06 32.74L18.06 33.87L16.93 33.87L16.93 32.74L15.8 32.74L15.8 33.87L12.41 33.87L12.41 32.74L11.29 32.74L11.29 33.87L10.16 33.87L10.16 32.74L9.03 32.74L9.03 33.87L7.9 33.87L7.9 32.74L6.77 32.74L6.77 33.87L5.64 33.87L5.64 32.74L4.51 32.74L4.51 33.87L3.38 33.87L3.38 32.74L2.25 32.74L2.25 33.87L1.12 33.87L1.12 31.61L18.06 31.61L20.32 31.61L20.32 33.87ZM29.35 32.74L29.35 33.87L21.45 33.87L21.45 31.61L29.35 31.61L29.35 32.74ZM21.45 21.45L21.45 20.32L29.35 20.32L29.35 21.45L21.45 21.45ZM28.22 22.58L28.22 30.48L22.58 30.48L22.58 22.58L28.22 22.58ZM29.35 30.48L29.35 22.58L30.48 22.58L30.48 19.19L20.32 19.19L20.32 22.58L21.45 22.58L21.45 30.48L19.19 30.48L19.19 6.25L24.94 3.95L25.85 3.95L31.61 6.25L31.61 30.48L29.35 30.48ZM33.87 31.61L33.87 33.87L32.74 33.87L32.74 32.74L31.61 32.74L31.61 33.87L30.48 33.87L30.48 32.74L30.48 31.61L32.74 31.61L33.87 31.61ZM26.07 2.82L24.73 2.82L16.93 5.94L16.93 4.33L24.94 1.12L25.85 1.12L33.87 4.33L33.87 5.94L26.07 2.82Z" fill="#000000" fill-opacity="1.000000" fill-rule="nonzero"/>
		<path id="Vector" d="M24.83 10.72C24.83 9.48 23.82 8.46 22.58 8.46C21.33 8.46 20.32 9.48 20.32 10.72L20.32 15.8L24.83 15.8L24.83 10.72ZM23.71 14.67L21.45 14.67L21.45 10.72C21.45 10.1 21.95 9.59 22.58 9.59C23.2 9.59 23.71 10.1 23.71 10.72L23.71 14.67Z" fill="#000000" fill-opacity="1.000000" fill-rule="nonzero"/>
		<path id="Vector" d="M28.22 8.46C26.98 8.46 25.96 9.48 25.96 10.72L25.96 15.8L30.48 15.8L30.48 10.72C30.48 9.48 29.47 8.46 28.22 8.46ZM29.35 14.67L27.09 14.67L27.09 10.72C27.09 10.1 27.6 9.59 28.22 9.59C28.84 9.59 29.35 10.1 29.35 10.72L29.35 14.67Z" fill="#000000" fill-opacity="1.000000" fill-rule="nonzero"/>
		<path id="Vector" d="M9.03 23.7C9.03 22.46 8.01 21.45 6.77 21.45C5.52 21.45 4.51 22.46 4.51 23.7L4.51 28.79L9.03 28.79L9.03 23.7ZM7.9 27.66L5.64 27.66L5.64 23.7C5.64 23.08 6.15 22.58 6.77 22.58C7.39 22.58 7.9 23.08 7.9 23.7L7.9 27.66Z" fill="#000000" fill-opacity="1.000000" fill-rule="nonzero"/>
		<path id="Vector" d="M15.8 23.7C15.8 22.46 14.79 21.45 13.54 21.45C12.3 21.45 11.29 22.46 11.29 23.7L11.29 28.79L15.8 28.79L15.8 23.7ZM14.67 27.66L12.41 27.66L12.41 23.7C12.41 23.08 12.92 22.58 13.54 22.58C14.17 22.58 14.67 23.08 14.67 23.7L14.67 27.66Z" fill="#000000" fill-opacity="1.000000" fill-rule="nonzero"/>
		<path id="Vector" d="M20.32 16.93L30.48 16.93L30.48 18.06L20.32 18.06L20.32 16.93Z" fill="#000000" fill-opacity="1.000000" fill-rule="evenodd"/>
	</g>
</svg>
