<svg width="41.000000" height="41.000000" viewBox="0 0 41 41" fill="none" xmlns="http://www.w3.org/2000/svg" xmlns:xlink="http://www.w3.org/1999/xlink">
	<desc>
			Created with Pixso.
	</desc>
	<defs/>
	<path id="Vector" d="M20.5 41C9.19 41 0 31.8 0 20.5C0 9.19 9.19 0 20.5 0C31.8 0 41 9.19 41 20.5C41 31.8 31.8 41 20.5 41ZM20.5 1.7C10.13 1.7 1.7 10.13 1.7 20.5C1.7 30.86 10.13 39.29 20.5 39.29C30.86 39.29 39.29 30.86 39.29 20.5C39.29 10.13 30.86 1.7 20.5 1.7ZM15.56 32.45C13.95 32.45 12.44 31.84 11.33 30.73L8.18 27.58L14.41 21.35L17.9 24.84C21.1 23.49 23.38 21.21 24.83 17.89L21.35 14.41L27.58 8.18L30.73 11.33C31.84 12.44 32.45 13.94 32.45 15.56C32.45 22.98 22.98 32.45 15.56 32.45L15.56 32.45ZM10.6 27.58L12.54 29.52C13.33 30.31 14.4 30.75 15.56 30.75C22.09 30.75 30.75 22.09 30.75 15.56C30.75 14.4 30.31 13.33 29.52 12.54L27.58 10.6L23.77 14.41L26.85 17.49L26.64 18.01C24.96 22.19 22.05 25.1 18 26.64L17.48 26.84L14.41 23.76L10.6 27.58L10.6 27.58Z" fill="#167EC2" fill-opacity="1.000000" fill-rule="nonzero"/>
</svg>
