<svg width="26" height="26" viewBox="0 0 26 26" fill="none" xmlns="http://www.w3.org/2000/svg">
<path d="M13.1632 0.147949C10.9525 0.148522 8.78061 0.729322 6.86469 1.8323C4.94877 2.93528 3.35589 4.5218 2.24527 6.4333C1.13464 8.3448 0.545167 10.5143 0.535759 12.725C0.526351 14.9357 1.09734 17.1102 2.19166 19.0311L1.05462 23.0108C0.980397 23.2707 0.977005 23.5456 1.0448 23.8072C1.11259 24.0688 1.2491 24.3075 1.44019 24.4986C1.63127 24.6896 1.86997 24.8261 2.13156 24.8939C2.39314 24.9617 2.66809 24.9583 2.92792 24.884L6.90769 23.747C8.58791 24.705 10.4657 25.2642 12.3963 25.3815C14.3268 25.4988 16.2585 25.1712 18.0424 24.4238C19.8262 23.6764 21.4146 22.5292 22.6849 21.0708C23.9552 19.6123 24.8736 17.8816 25.3692 16.0121C25.8647 14.1425 25.9243 12.1841 25.5431 10.288C25.162 8.39177 24.3505 6.60846 23.1711 5.07557C21.9916 3.54268 20.4759 2.30118 18.7407 1.44682C17.0055 0.592463 15.0973 0.148081 13.1632 0.147949ZM13.1632 24.3928C11.0767 24.3943 9.02848 23.833 7.23423 22.768C7.17508 22.7328 7.10935 22.7101 7.04108 22.7012C6.97282 22.6923 6.90346 22.6975 6.83727 22.7165L2.65033 23.9128C2.56372 23.9375 2.47207 23.9386 2.38487 23.916C2.29768 23.8934 2.21811 23.8479 2.15443 23.7842C2.09074 23.7205 2.04525 23.641 2.02266 23.5538C2.00008 23.4666 2.00122 23.3749 2.02598 23.2883L3.22215 19.1015C3.24105 19.0353 3.24622 18.9659 3.23736 18.8977C3.2285 18.8294 3.20578 18.7637 3.1706 18.7045C1.86208 16.5 1.31942 13.9246 1.62713 11.3795C1.93485 8.83443 3.07568 6.46258 4.87189 4.63343C6.6681 2.80429 9.01884 1.62057 11.5579 1.26667C14.097 0.912775 16.6818 1.40857 18.9098 2.67683C21.1377 3.94508 22.8836 5.91459 23.8756 8.27852C24.8675 10.6425 25.0497 13.2681 24.3939 15.7464C23.7381 18.2247 22.281 20.4166 20.2497 21.9805C18.2184 23.5444 15.7268 24.3925 13.1632 24.3928ZM19.5415 15.117L16.958 13.6407C16.7243 13.5073 16.4592 13.4385 16.1901 13.4413C15.921 13.4442 15.6575 13.5186 15.4266 13.657L13.6832 14.7031C12.6277 14.1683 11.7704 13.3109 11.2356 12.2555L12.2817 10.512C12.42 10.2812 12.4944 10.0177 12.4973 9.74858C12.5001 9.47946 12.4313 9.21444 12.2979 8.9807L10.8217 6.3971C10.7011 6.18677 10.5273 6.01195 10.3176 5.89027C10.1079 5.76859 9.86984 5.70437 9.62742 5.70407C8.55841 5.70433 7.53305 6.12808 6.77573 6.88257C6.01842 7.63706 5.59085 8.66084 5.5866 9.72984C5.58464 11.124 5.85755 12.505 6.38972 13.7936C6.9219 15.0822 7.70289 16.2533 8.68803 17.2399C9.67318 18.2264 10.8431 19.0091 12.131 19.5431C13.4189 20.0771 14.7994 20.352 16.1936 20.352H16.2088C17.2778 20.3478 18.3016 19.9202 19.056 19.1629C19.8105 18.4056 20.2343 17.3802 20.2346 16.3112C20.2343 16.0688 20.1701 15.8307 20.0484 15.6211C19.9267 15.4114 19.7519 15.2375 19.5415 15.117ZM16.2074 19.3418H16.1937C14.9323 19.3418 13.6832 19.0931 12.518 18.61C11.3527 18.1269 10.2942 17.4187 9.40285 16.5261C8.51152 15.6335 7.80491 14.574 7.32342 13.4081C6.84193 12.2422 6.59502 10.9928 6.59681 9.73133C6.6003 8.92988 6.92114 8.16245 7.48913 7.59701C8.05711 7.03157 8.82597 6.71417 9.62742 6.71428C9.69179 6.71436 9.75501 6.73141 9.81069 6.76371C9.86638 6.79601 9.91256 6.84242 9.94459 6.89826L11.4209 9.48198C11.4653 9.55989 11.4882 9.64823 11.4873 9.73792C11.4863 9.82761 11.4615 9.91544 11.4154 9.99239L10.2298 11.9684C10.1879 12.0382 10.1635 12.1172 10.1587 12.1985C10.1539 12.2798 10.1688 12.3611 10.2023 12.4354C10.8615 13.9027 12.036 15.0772 13.5033 15.7364C13.5776 15.7699 13.6589 15.7848 13.7402 15.78C13.8216 15.7752 13.9005 15.7508 13.9704 15.7088L15.9462 14.5233C16.0232 14.4771 16.111 14.4523 16.2008 14.4514C16.2905 14.4504 16.3788 14.4733 16.4568 14.5177L19.0404 15.9942C19.0963 16.0262 19.1427 16.0723 19.175 16.128C19.2073 16.1837 19.2243 16.2469 19.2244 16.3112C19.2245 17.1127 18.9071 17.8815 18.3416 18.4495C17.7762 19.0175 17.0088 19.3383 16.2074 19.3418Z" fill="white"/>
</svg>
