<svg width="48.000000" height="48.000000" viewBox="0 0 48 48" fill="none" xmlns="http://www.w3.org/2000/svg" xmlns:xlink="http://www.w3.org/1999/xlink">
	<desc>
			Created with Pixso.
	</desc>
	<defs>
		<clipPath id="clip339_453">
			<rect id="whatsapp-logo-thin-svgrepo-com 1" width="48.000000" height="48.000000" fill="white" fill-opacity="0"/>
		</clipPath>
	</defs>
	<rect id="whatsapp-logo-thin-svgrepo-com 1" width="48.000000" height="48.000000" fill="#FFFFFF" fill-opacity="0"/>
	<g clip-path="url(#clip339_453)">
		<path id="Vector" d="M24 5.25C20.71 5.25 17.49 6.11 14.64 7.75C11.8 9.38 9.43 11.74 7.78 14.58C6.14 17.42 5.26 20.64 5.25 23.92C5.23 27.2 6.08 30.43 7.7 33.28L6.02 39.19C5.91 39.58 5.9 39.99 6 40.38C6.1 40.76 6.31 41.12 6.59 41.4C6.87 41.69 7.23 41.89 7.62 41.99C8 42.09 8.41 42.08 8.8 41.97L14.71 40.29C17.2 41.71 19.99 42.54 22.86 42.71C25.72 42.89 28.59 42.4 31.24 41.29C33.89 40.18 36.25 38.48 38.13 36.31C40.02 34.15 41.38 31.58 42.12 28.8C42.86 26.02 42.94 23.12 42.38 20.3C41.81 17.49 40.61 14.84 38.86 12.56C37.1 10.29 34.85 8.44 32.28 7.17C29.7 5.91 26.87 5.25 24 5.25ZM24 41.25C20.9 41.25 17.86 40.41 15.19 38.83C15.1 38.78 15.01 38.75 14.91 38.73C14.8 38.72 14.7 38.73 14.6 38.76L8.39 40.53C8.26 40.57 8.12 40.57 7.99 40.54C7.86 40.5 7.74 40.44 7.65 40.34C7.55 40.25 7.49 40.13 7.45 40C7.42 39.87 7.42 39.73 7.46 39.6L9.23 33.39C9.26 33.29 9.27 33.19 9.26 33.09C9.24 32.98 9.21 32.89 9.16 32.8C7.22 29.53 6.41 25.7 6.87 21.92C7.32 18.14 9.02 14.62 11.68 11.91C14.35 9.19 17.84 7.43 21.61 6.91C25.38 6.38 29.22 7.12 32.53 9C35.84 10.88 38.43 13.81 39.9 17.32C41.37 20.83 41.65 24.73 40.67 28.41C39.7 32.09 37.53 35.34 34.52 37.66C31.5 39.99 27.8 41.24 24 41.25ZM33.47 27.47L29.63 25.28C29.28 25.08 28.89 24.98 28.49 24.98C28.09 24.99 27.7 25.1 27.36 25.3L24.77 26.86C23.2 26.06 21.93 24.79 21.13 23.22L22.69 20.63C22.89 20.29 23 19.9 23.01 19.5C23.01 19.1 22.91 18.71 22.71 18.36L20.52 14.52C20.34 14.21 20.08 13.95 19.77 13.77C19.46 13.59 19.11 13.5 18.75 13.5C17.16 13.5 15.64 14.12 14.51 15.24C13.39 16.37 12.75 17.89 12.75 19.47C12.74 21.54 13.15 23.59 13.94 25.51C14.73 27.42 15.89 29.16 17.35 30.62C18.81 32.09 20.55 33.25 22.46 34.04C24.38 34.84 26.43 35.25 28.5 35.25L28.52 35.25C30.1 35.24 31.63 34.6 32.75 33.48C33.87 32.35 34.5 30.83 34.5 29.25C34.5 28.89 34.4 28.53 34.22 28.22C34.04 27.91 33.78 27.65 33.47 27.47ZM28.52 33.75L28.5 33.75C26.62 33.75 24.77 33.38 23.04 32.66C21.31 31.94 19.74 30.89 18.41 29.56C17.09 28.24 16.04 26.67 15.32 24.93C14.61 23.2 14.24 21.35 14.25 19.47C14.25 18.28 14.73 17.15 15.57 16.31C16.41 15.47 17.56 14.99 18.75 15C18.84 15 18.93 15.02 19.02 15.07C19.1 15.12 19.17 15.19 19.22 15.27L21.41 19.1C21.47 19.22 21.51 19.35 21.51 19.48C21.51 19.62 21.47 19.75 21.4 19.86L19.64 22.8C19.58 22.9 19.54 23.02 19.53 23.14C19.53 23.26 19.55 23.38 19.6 23.49C20.58 25.67 22.32 27.41 24.5 28.39C24.61 28.44 24.73 28.46 24.85 28.46C24.97 28.45 25.09 28.41 25.19 28.35L28.13 26.59C28.24 26.52 28.37 26.48 28.51 26.48C28.64 26.48 28.77 26.52 28.89 26.58L32.72 28.77C32.81 28.82 32.87 28.89 32.92 28.97C32.97 29.06 33 29.15 33 29.25C33 30.44 32.52 31.58 31.68 32.42C30.85 33.26 29.71 33.74 28.52 33.75Z" fill="#FFFFFF" fill-opacity="1.000000" fill-rule="nonzero"/>
	</g>
</svg>
