<svg width="21.000000" height="21.000000" viewBox="0 0 21 21" fill="none" xmlns="http://www.w3.org/2000/svg" xmlns:xlink="http://www.w3.org/1999/xlink">
	<desc>
			Created with Pixso.
	</desc>
	<defs>
		<clipPath id="clip339_361">
			<rect id="attachment-plus-svgrepo-com 2" width="21.000000" height="21.000000" fill="white" fill-opacity="0"/>
		</clipPath>
	</defs>
	<rect id="attachment-plus-svgrepo-com 2" width="21.000000" height="21.000000" fill="#FFFFFF" fill-opacity="0"/>
	<g clip-path="url(#clip339_361)">
		<path id="Vector" d="M11.37 16.62C11.37 16.8 11.43 16.97 11.54 17.11L9.97 18.7C9.07 19.6 7.85 20.11 6.57 20.1C5.3 20.1 4.07 19.6 3.17 18.69C2.27 17.79 1.76 16.57 1.76 15.29C1.76 14.01 2.27 12.79 3.17 11.89L13.28 1.88C13.94 1.23 14.83 0.87 15.76 0.87C16.22 0.87 16.68 0.97 17.1 1.14C17.52 1.32 17.91 1.58 18.23 1.91C18.56 2.23 18.81 2.62 18.99 3.05C19.16 3.47 19.25 3.93 19.25 4.39C19.24 4.85 19.15 5.3 18.97 5.73C18.79 6.15 18.53 6.54 18.21 6.86L8.97 15.99C8.56 16.39 8 16.62 7.42 16.62C6.85 16.62 6.29 16.38 5.88 15.97C5.47 15.56 5.25 15.01 5.25 14.43C5.25 13.85 5.48 13.29 5.89 12.88L12.89 5.89L13.5 6.5L6.5 13.5C6.26 13.75 6.13 14.08 6.13 14.43C6.14 14.77 6.27 15.1 6.52 15.34C6.76 15.59 7.09 15.73 7.43 15.73C7.78 15.73 8.11 15.6 8.36 15.36L17.59 6.24C18.09 5.75 18.37 5.08 18.37 4.38C18.37 3.69 18.1 3.02 17.61 2.52C17.37 2.28 17.08 2.08 16.76 1.95C16.44 1.82 16.1 1.75 15.76 1.75C15.06 1.74 14.39 2.02 13.9 2.51L3.79 12.51C3.05 13.25 2.63 14.25 2.63 15.3C2.63 16.34 3.05 17.34 3.79 18.08C4.52 18.82 5.53 19.23 6.57 19.23C7.61 19.23 8.62 18.82 9.35 18.08L11.37 16.04L11.37 16.62ZM16.62 12.25L15.75 12.25L15.75 15.75L12.25 15.75L12.25 16.62L15.75 16.62L15.75 20.12L16.62 20.12L16.62 16.62L20.12 16.62L20.12 15.75L16.62 15.75L16.62 12.25Z" fill="#000000" fill-opacity="1.000000" fill-rule="nonzero"/>
	</g>
</svg>
