<svg width="37.000000" height="37.000000" viewBox="0 0 37 37" fill="none" xmlns="http://www.w3.org/2000/svg" xmlns:xlink="http://www.w3.org/1999/xlink">
	<desc>
			Created with Pixso.
	</desc>
	<defs>
		<clipPath id="clip339_443">
			<rect id="telegram-svgrepo-com (1) 1" width="37.000000" height="37.000000" fill="white" fill-opacity="0"/>
		</clipPath>
	</defs>
	<rect id="telegram-svgrepo-com (1) 1" width="37.000000" height="37.000000" fill="#FFFFFF" fill-opacity="0"/>
	<g clip-path="url(#clip339_443)">
		<path id="Vector" d="M31.58 5.41C28.08 1.92 23.44 0 18.5 0C13.55 0 8.91 1.92 5.41 5.41C1.92 8.91 0 13.55 0 18.5C0 23.44 1.92 28.08 5.41 31.58C8.91 35.07 13.55 37 18.5 37C23.44 37 28.08 35.07 31.58 31.58C35.07 28.08 37 23.44 37 18.5C37 13.55 35.07 8.91 31.58 5.41ZM18.5 35.83C8.94 35.83 1.16 28.05 1.16 18.5C1.16 8.94 8.94 1.16 18.5 1.16C28.05 1.16 35.83 8.94 35.83 18.5C35.83 28.05 28.05 35.83 18.5 35.83Z" fill="#FFFFFF" fill-opacity="1.000000" fill-rule="nonzero"/>
		<path id="Vector" d="M28.97 7.12C28.79 6.99 28.55 6.97 28.35 7.07L5.76 18.76C5.57 18.86 5.45 19.06 5.45 19.28C5.45 19.5 5.57 19.7 5.77 19.8L11.68 22.75L11.68 28.6C11.68 28.76 11.73 28.91 11.84 29.02C11.95 29.14 12.11 29.21 12.26 29.21C12.36 29.21 12.46 29.18 12.55 29.13L19.31 25.38L24.48 27.59C24.59 27.64 24.71 27.66 24.83 27.64C25.07 27.59 25.25 27.41 25.3 27.18L26.61 20.63C26.68 20.27 26.4 19.93 26.04 19.93C25.76 19.93 25.52 20.13 25.46 20.4L24.3 26.24L19.5 24.19C19.34 24.12 19.15 24.13 18.99 24.22L12.85 27.63L12.85 22.39C12.85 22.17 12.72 21.97 12.52 21.87L7.32 19.27L27.81 8.67L26.03 17.56C25.96 17.92 26.24 18.26 26.6 18.26C26.88 18.26 27.12 18.06 27.18 17.79L29.19 7.7C29.24 7.48 29.15 7.26 28.97 7.12Z" fill="#FFFFFF" fill-opacity="1.000000" fill-rule="nonzero"/>
		<path id="Vector" d="M25.19 11.9C25 11.67 24.67 11.61 24.42 11.77L14.29 18C14.12 18.1 14.02 18.29 14.02 18.5L14.02 24.73C14.02 25 14.2 25.23 14.47 25.3C14.51 25.31 14.56 25.31 14.6 25.31C14.82 25.31 15.02 25.19 15.12 24.99L17.42 20.4L25.14 12.68C25.35 12.47 25.37 12.13 25.19 11.9ZM16.52 19.64C16.48 19.68 16.44 19.74 16.41 19.79L15.18 22.25L15.18 18.82L20.8 15.37L16.52 19.64Z" fill="#FFFFFF" fill-opacity="1.000000" fill-rule="nonzero"/>
	</g>
</svg>
