<svg width="40.000000" height="40.000000" viewBox="0 0 40 40" fill="none" xmlns="http://www.w3.org/2000/svg" xmlns:xlink="http://www.w3.org/1999/xlink">
	<desc>
			Created with Pixso.
	</desc>
	<defs>
		<clipPath id="clip339_28">
			<rect id="vk-svgrepo-com 1" width="40.000000" height="40.000000" fill="white" fill-opacity="0"/>
		</clipPath>
	</defs>
	<rect id="vk-svgrepo-com 1" width="40.000000" height="40.000000" fill="#FFFFFF" fill-opacity="0"/>
	<g clip-path="url(#clip339_28)">
		<path id="Vector" d="M22.95 23.79C26.67 24.35 27.85 27.28 30.21 29.32L36.25 29.32C34.74 25.95 32.49 22.97 29.66 20.59C31.83 17.61 34.13 14.8 35.25 10.54L29.77 10.54C27.62 13.8 26.49 17.62 22.95 20.14L22.95 10.54L15 10.54L16.89 12.89L16.89 21.27C13.81 20.91 11.73 15.27 9.47 10.54L3.75 10.54C5.83 16.93 10.21 30.94 22.95 29.32L22.95 23.79Z" stroke="#FFFFFF" stroke-opacity="1.000000" stroke-width="1.763668" stroke-linejoin="round"/>
	</g>
</svg>
