<svg width="48" height="49" viewBox="0 0 48 49" fill="none" xmlns="http://www.w3.org/2000/svg">
<path d="M24 5.3291C20.7174 5.32995 17.4925 6.19235 14.6477 7.83011C11.8028 9.46786 9.43764 11.8236 7.78853 14.6619C6.13942 17.5002 5.26414 20.7216 5.25017 24.0042C5.2362 27.2867 6.08403 30.5155 7.70893 33.3677L6.0206 39.277C5.91039 39.6629 5.90535 40.0711 6.00602 40.4595C6.10668 40.8479 6.30938 41.2024 6.59311 41.4861C6.87684 41.7698 7.23127 41.9724 7.61969 42.0731C8.0081 42.1737 8.41636 42.1687 8.80216 42.0584L14.7115 40.3702C17.2064 41.7926 19.9946 42.6229 22.8612 42.7971C25.7278 42.9713 28.5961 42.4848 31.2448 41.375C33.8936 40.2652 36.252 38.5619 38.1383 36.3963C40.0245 34.2308 41.3882 31.6609 42.124 28.8849C42.8599 26.1089 42.9482 23.201 42.3824 20.3855C41.8165 17.5699 40.6114 14.922 38.8602 12.6459C37.1089 10.3698 34.8582 8.52632 32.2818 7.25773C29.7053 5.98914 26.8719 5.3293 24 5.3291ZM24 41.3291C20.9019 41.3312 17.8606 40.4977 15.1964 38.9165C15.1086 38.8642 15.011 38.8304 14.9096 38.8173C14.8082 38.8041 14.7052 38.8118 14.607 38.84L8.38999 40.6163C8.26138 40.653 8.12529 40.6547 7.99582 40.6211C7.86635 40.5876 7.74821 40.52 7.65365 40.4254C7.55908 40.3308 7.49153 40.2127 7.45799 40.0832C7.42446 39.9537 7.42616 39.8176 7.46292 39.689L9.23905 33.4722C9.26711 33.374 9.2748 33.271 9.26164 33.1696C9.24848 33.0683 9.21474 32.9707 9.16251 32.8828C7.21956 29.6094 6.41378 25.7853 6.8707 22.0063C7.32761 18.2272 9.02156 14.7054 11.6887 11.9894C14.3558 9.27337 17.8463 7.51572 21.6164 6.99024C25.3866 6.46475 29.2246 7.20094 32.5328 9.0841C35.8409 10.9673 38.4333 13.8917 39.9062 17.4018C41.3791 20.9119 41.6497 24.8105 40.6759 28.4905C39.7021 32.1704 37.5386 35.4249 34.5224 37.7471C31.5062 40.0693 27.8066 41.3287 24 41.3291ZM33.4709 27.5559L29.6347 25.3638C29.2876 25.1657 28.8941 25.0635 28.4945 25.0678C28.0949 25.072 27.7036 25.1825 27.3608 25.3879L24.7721 26.9412C23.2049 26.1472 21.9318 24.8741 21.1379 23.307L22.6911 20.7182C22.8965 20.3754 23.007 19.9842 23.0112 19.5846C23.0155 19.185 22.9133 18.7915 22.7152 18.4444L20.5232 14.6081C20.3442 14.2958 20.086 14.0362 19.7747 13.8556C19.4634 13.6749 19.1099 13.5795 18.7499 13.5791C17.1626 13.5795 15.6401 14.2087 14.5156 15.329C13.3911 16.4493 12.7562 17.9695 12.7499 19.5568C12.747 21.6269 13.1522 23.6774 13.9424 25.5908C14.7326 27.5042 15.8923 29.2431 17.3551 30.708C18.8179 32.1729 20.5551 33.335 22.4674 34.128C24.3797 34.9209 26.4295 35.3291 28.4997 35.3291H28.5222C30.1095 35.3228 31.6297 34.6879 32.75 33.5634C33.8703 32.4389 34.4995 30.9164 34.4999 29.3291C34.4995 28.9691 34.4042 28.6157 34.2235 28.3043C34.0428 27.993 33.7832 27.7348 33.4709 27.5559ZM28.5201 33.8291H28.4998C26.6268 33.8291 24.7721 33.4598 23.0419 32.7424C21.3117 32.0251 19.74 30.9736 18.4165 29.6482C17.093 28.3229 16.0438 26.7496 15.3288 25.0184C14.6139 23.2872 14.2473 21.432 14.2499 19.559C14.2551 18.3689 14.7315 17.2294 15.5749 16.3898C16.4182 15.5502 17.5599 15.0789 18.7499 15.0791C18.8455 15.0792 18.9394 15.1045 19.022 15.1525C19.1047 15.2005 19.1733 15.2694 19.2209 15.3523L21.4129 19.1887C21.4789 19.3044 21.5129 19.4356 21.5115 19.5688C21.5101 19.7019 21.4733 19.8323 21.4048 19.9466L19.6444 22.8807C19.5821 22.9844 19.5459 23.1016 19.5388 23.2224C19.5316 23.3431 19.5538 23.4638 19.6035 23.5741C20.5823 25.7528 22.3263 27.4968 24.505 28.4757C24.6153 28.5253 24.736 28.5475 24.8568 28.5404C24.9776 28.5332 25.0948 28.4969 25.1985 28.4346L28.1324 26.6743C28.2467 26.6058 28.3771 26.5689 28.5103 26.5675C28.6435 26.566 28.7747 26.6 28.8905 26.666L32.7268 28.8583C32.8097 28.9059 32.8786 28.9744 32.9266 29.0571C32.9745 29.1397 32.9998 29.2335 32.9999 29.3291C33.0001 30.5191 32.5288 31.6607 31.6892 32.5041C30.8496 33.3475 29.7101 33.8239 28.5201 33.8291Z" fill="black"/>
</svg>
